<?xml version="1.0" encoding="utf-8" ?><svg xmlns="http://www.w3.org/2000/svg" xmlns:xlink="http://www.w3.org/1999/xlink" width="311" height="252" viewBox="0 0 311 252"><clipPath id="cl_7"><rect width="311" height="252"/></clipPath><g clip-path="url(#cl_7)"><path transform="translate(-354 -105)" d="M606.259 188.244C617.074 188.241 627.889 188.332 638.703 188.517C618.664 209.6 598.513 230.577 578.25 251.445C589.585 264 600.008 277.235 610.836 290.196C622.516 304.176 634.115 317.772 645.505 332.014C632.922 332.088 620.338 332.079 607.754 331.986C601.837 326.496 591.213 313.175 585.634 306.319C576.915 295.606 566.002 283.684 557.785 272.853L544.41 287.373L544.481 332.001L514.428 332.028C514.451 328.873 514.806 314.98 514.17 312.887L513.285 313.077C493.867 325.839 476.462 332.116 452.956 333.517C422.631 335.324 397.527 330.261 372.45 312.942C376.593 304.73 381.271 296.396 385.681 288.296C406.092 301.269 418.582 305.339 442.8 306.446C485.883 308.415 509.106 282.397 536.209 253.979L575.039 213.016C582.646 204.988 590.898 195.891 598.89 188.426L606.259 188.244Z"/><path transform="translate(-354 -105)" d="M433.856 185.709C453.503 184.906 477.747 189.339 493.473 201.881C489.848 209.887 485.491 218.149 481.493 226.022C463.578 216.086 450.558 211.487 429.283 213.164C423.577 213.519 413.468 216.743 410.328 221.598C397.531 241.476 437.247 244.373 448.73 246.453C463.496 249.128 475.109 250.78 487.246 260.535C493.617 266.369 495.17 270.79 497.903 278.725C487.492 286.824 480.2 289.705 468.158 294.039C468.149 292.637 468.094 291.237 467.991 289.839C466.832 275.66 449.952 274.393 438.916 272.683C421.486 269.982 402.92 268.442 388.73 256.726C373.69 244.307 374.193 218.121 386.573 204.005C399.021 189.811 416.052 187.063 433.856 185.709Z"/><path transform="translate(-354 -105)" d="M514.475 126.432C524.391 126.567 534.51 126.459 544.442 126.454C544.581 160.118 545.241 197.552 544.348 231.013C541.203 235.113 533.602 242.797 529.764 246.872C524.627 252.21 519.531 257.586 514.475 263L514.475 126.432Z"/></g></svg>