<?xml version="1.0" encoding="utf-8" ?><svg xmlns="http://www.w3.org/2000/svg" xmlns:xlink="http://www.w3.org/1999/xlink" width="558" height="139" viewBox="0 0 558 139"><clipPath id="cl_4"><rect width="558" height="139"/></clipPath><g clip-path="url(#cl_4)"><path transform="translate(-235 -128)" d="M512.075 147.492L526.511 147.5C525.287 169.875 527.434 193.389 525.476 215.406C523.102 242.101 492.734 251.505 470.84 238.481C469.186 237.252 467.498 235.986 465.972 234.6C453.687 223.439 452.815 202.668 461.727 189.101C466.671 181.712 474.352 176.595 483.075 174.877C493.348 172.749 503.16 174.818 511.867 180.583C512.131 169.699 512.03 158.408 512.075 147.492ZM494.253 229.668C505.616 227.941 513.402 217.293 511.603 205.941C509.803 194.588 499.105 186.871 487.765 188.743C476.526 190.599 468.894 201.179 470.677 212.429C472.461 223.679 482.991 231.379 494.253 229.668Z"/><path transform="translate(-235 -128)" d="M637.284 174.162C656.608 171.099 674.773 184.231 677.924 203.54C681.076 222.85 668.028 241.075 648.733 244.315C629.313 247.576 610.943 234.425 607.771 214.99C604.599 195.555 617.834 177.245 637.284 174.162ZM645.734 229.809C657.062 228.222 664.949 217.74 663.338 206.415C661.726 195.091 651.227 187.226 639.906 188.862C628.619 190.493 620.783 200.953 622.39 212.243C623.997 223.533 634.44 231.392 645.734 229.809Z"/><path transform="translate(-235 -128)" d="M562.198 174.16C581.48 171.545 599.261 184.974 602.019 204.236C604.778 223.498 591.481 241.378 572.24 244.28C552.796 247.212 534.685 233.744 531.898 214.279C529.11 194.813 542.712 176.803 562.198 174.16ZM569.249 229.877C580.582 228.562 588.706 218.313 587.4 206.98C586.093 195.646 575.851 187.514 564.516 188.812C553.169 190.111 545.027 200.367 546.334 211.713C547.642 223.059 557.904 231.193 569.249 229.877Z"/><path transform="translate(-235 -128)" d="M409.564 174.607C413.054 174.471 416.721 174.248 420.121 174.467C436.388 175.513 448.445 188.165 449.685 204.246C449.999 208.316 449.779 211.351 449.449 215.452L397.138 215.498C397.478 216.313 397.859 217.109 398.279 217.886C406.749 233.657 421.158 232.834 433.91 223.108C434.852 222.39 435.36 222.572 436.285 222.873C439.568 225.236 443.705 228.902 446.884 231.563C433.911 245.64 412.267 249.041 395.895 238.996C388.306 234.267 382.937 226.685 380.997 217.955C375.981 196.321 388.522 179.381 409.564 174.607ZM397.422 201.951L417.625 201.872C422.717 201.882 428.092 201.983 433.16 201.845C429.36 192.357 424.981 188.691 414.479 188.622C404.995 190.464 401.1 192.557 397.422 201.951Z"/><path transform="translate(-235 -128)" d="M736.564 174.598C738.461 174.485 740.36 174.411 742.26 174.375C759.795 174.214 773.172 183.547 776.249 201.248C777.132 206.323 777.065 210.49 777.035 215.604C761.975 216.875 739.514 215.743 723.475 215.977C731.453 234.382 747.885 233.67 761.699 222.368C764.528 223.134 770.176 228.644 772.636 230.879C767.539 236.903 761.571 241.153 753.875 243.129C743.661 245.846 732.785 244.369 723.666 239.025C702.142 226.122 701.795 193.374 722.826 179.834C727.416 176.879 731.291 175.888 736.564 174.598ZM723.479 202.5L746.75 202.479L762.096 202.485C757.282 191.498 751.696 187.893 739.438 188.594C730.705 191.213 726.942 193.514 723.479 202.5Z"/><path fill="#F66100" transform="translate(-235 -128)" d="M358.871 175.543C365.461 175.436 372.323 175.531 378.937 175.527C372.909 183.879 359.808 196.299 352.351 205.043C361.844 217.858 374.866 230.425 385.314 243.485C378.472 243.591 371.629 243.62 364.786 243.572C356.83 236.023 347.528 224.7 340.927 215.873C338.554 218.528 336.382 221.145 334.118 223.894L334.096 243.401C328.917 243.533 323.256 243.432 318.04 243.431C318.076 241.516 318.267 239.06 317.711 237.283L316.829 237.356C294.821 248.016 266.555 249.318 246.499 233.693C248.041 230.024 251.465 224.809 253.64 221.275C260.24 224.465 266.947 227.884 274.329 229.177C310.118 235.442 323.031 211.398 345.089 189.002C348.906 185.126 354.127 178.655 358.448 175.816L358.871 175.543Z"/><path fill="#F66100" transform="translate(-235 -128)" d="M276.537 173.731C288.948 172.873 299.117 176.177 309.378 182.94C307.217 187.162 304.985 191.348 302.683 195.495C295.994 192.559 288.894 189.115 281.463 188.819C276.549 188.623 265.924 188.428 265.516 194.974C268.23 201.503 284.079 201.338 290.647 203.11C296.555 204.704 298.054 204.697 303.757 207.597C308.499 210.801 309.234 213.513 310.866 218.702C308.428 220.388 303.711 223.748 300.84 224.202C296.823 224.836 294.025 219.508 289.576 218.365C278.116 215.428 265.872 216.471 255.829 209.104C247.19 202.768 247.673 191.414 253.853 183.515C260.009 175.648 267.401 174.881 276.537 173.731Z"/><path transform="translate(-235 -128)" d="M685.099 147.432L699.977 147.528L699.943 242.809C695.126 243.018 689.884 242.885 685.032 242.854C685.612 211.513 685.067 178.9 685.099 147.432Z"/><path fill="#F66100" transform="translate(-235 -128)" d="M318.082 147.262C321.099 147.609 330.441 147.441 333.925 147.456L333.976 196.025C331.438 199.153 328.621 201.992 325.827 204.891C323.075 207.809 321.04 209.852 318.04 212.501L318.082 147.262Z"/></g></svg>