<svg xmlns="http://www.w3.org/2000/svg" width="1200" height="630" viewBox="0 0 1200 630" role="img" aria-label="Skedoole — Agenda digital para barbearias e salões">
  <defs>
    <linearGradient id="bg" x1="0" y1="0" x2="1" y2="1">
      <stop offset="0%" stop-color="#1A0E08"/>
      <stop offset="55%" stop-color="#140A06"/>
      <stop offset="100%" stop-color="#0A0A0A"/>
    </linearGradient>
    <radialGradient id="aura" cx="0.3" cy="0.3" r="0.9">
      <stop offset="0%" stop-color="#F05A28" stop-opacity="0.32"/>
      <stop offset="60%" stop-color="#F05A28" stop-opacity="0.08"/>
      <stop offset="100%" stop-color="#F05A28" stop-opacity="0"/>
    </radialGradient>
    <linearGradient id="brand" x1="0" y1="0" x2="1" y2="1">
      <stop offset="0%" stop-color="#FF7043"/>
      <stop offset="100%" stop-color="#D44A1A"/>
    </linearGradient>
    <pattern id="grid" x="0" y="0" width="40" height="40" patternUnits="userSpaceOnUse">
      <path d="M40 0 L0 0 L0 40" fill="none" stroke="#F05A28" stroke-opacity="0.08" stroke-width="1"/>
    </pattern>
  </defs>
  <rect width="1200" height="630" fill="url(#bg)"/>
  <rect width="1200" height="630" fill="url(#grid)"/>
  <rect x="-220" y="-220" width="900" height="900" fill="url(#aura)"/>
  <g transform="translate(96,240)">
    <rect x="0" y="0" width="180" height="180" rx="44" fill="url(#brand)"/>
    <rect x="0" y="86" width="180" height="12" fill="#0A0A0A"/>
    <circle cx="90" cy="92" r="34" fill="none" stroke="#0A0A0A" stroke-width="10"/>
    <path d="M70 92 L86 108 L116 76" fill="none" stroke="#0A0A0A" stroke-width="14" stroke-linecap="round" stroke-linejoin="round"/>
  </g>
  <text x="312" y="306" font-family="Poppins, Arial, sans-serif" font-size="76" font-weight="700" fill="#ffffff">Skedoole</text>
  <text x="312" y="368" font-family="Poppins, Arial, sans-serif" font-size="30" font-weight="500" fill="#D4A088">Agenda digital para barbearias e salões</text>
  <g transform="translate(312,456)" font-family="Poppins, Arial, sans-serif" font-size="22" font-weight="600" fill="#0A0A0A">
    <rect x="0" y="0" width="282" height="58" rx="29" fill="#F05A28"/>
    <text x="141" y="38" text-anchor="middle" fill="#0A0A0A">skedoole.com.br</text>
  </g>
  <g transform="translate(640,440)" opacity="0.85">
    <rect x="0" y="0" width="416" height="190" rx="24" fill="#ffffff" fill-opacity="0.04" stroke="#F05A28" stroke-opacity="0.28"/>
    <circle cx="36" cy="44" r="8" fill="#ff5f57"/>
    <circle cx="68" cy="44" r="8" fill="#febc2e"/>
    <circle cx="100" cy="44" r="8" fill="#28c840"/>
    <text x="32" y="82" font-family="Poppins,Arial,sans-serif" font-size="14" font-weight="600" fill="#D4A088">AGENDA · HOJE</text>
    <rect x="32" y="98" width="352" height="22" rx="6" fill="#F05A28" fill-opacity="0.22"/>
    <text x="44" y="114" font-family="Arial" font-size="12" fill="#D4A088">09:00 · Júnior · confirmado</text>
    <rect x="32" y="126" width="352" height="22" rx="6" fill="#ffffff" fill-opacity="0.06"/>
    <text x="44" y="142" font-family="Arial" font-size="12" fill="#8A7060">10:30 · livre</text>
    <rect x="32" y="154" width="352" height="22" rx="6" fill="#f59e0b" fill-opacity="0.22"/>
    <text x="44" y="170" font-family="Arial" font-size="12" fill="#f59e0b">14:00 · Aline · pendente</text>
  </g>
</svg>
